<svg width="24" height="24" viewBox="0 0 24 24" fill="none" xmlns="http://www.w3.org/2000/svg">
<mask id="mask0_2020_1584" style="mask-type:luminance" maskUnits="userSpaceOnUse" x="0" y="0" width="24" height="24">
<path d="M0 0H24V24H0V0Z" fill="white"/>
<path d="M6.77339 7.55016C6.85797 7.46161 6.95932 7.39077 7.07154 7.34177C7.18376 7.29277 7.30461 7.26659 7.42705 7.26475C7.54949 7.26291 7.67107 7.28546 7.78472 7.33107C7.89836 7.37667 8.00179 7.44444 8.08899 7.53041C8.17619 7.61638 8.24541 7.71885 8.29262 7.83183C8.33983 7.94482 8.36409 8.06607 8.36398 8.18852C8.36388 8.31098 8.33941 8.43219 8.292 8.54509C8.24459 8.65799 8.1752 8.76034 8.08785 8.84616C7.04173 9.9086 6.45723 11.341 6.46139 12.832C6.46139 15.9437 8.94447 18.4619 11.9998 18.4619C15.0552 18.4619 17.5383 15.9437 17.5383 12.8311C17.5383 11.3145 16.9466 9.8957 15.9118 8.84616C15.8245 8.76034 15.7551 8.65799 15.7077 8.54509C15.6603 8.43219 15.6358 8.31098 15.6357 8.18852C15.6356 8.06607 15.6599 7.94482 15.7071 7.83183C15.7543 7.71885 15.8235 7.61638 15.9107 7.53041C15.9979 7.44444 16.1013 7.37667 16.215 7.33107C16.3286 7.28546 16.4502 7.26291 16.5726 7.26475C16.6951 7.26659 16.8159 7.29277 16.9282 7.34177C17.0404 7.39077 17.1417 7.46161 17.2263 7.55016C18.6128 8.95774 19.3883 10.8553 19.3845 12.8311C19.3845 16.9572 16.0817 20.308 11.9998 20.308C7.91893 20.308 4.61523 16.9572 4.61523 12.8311C4.61523 10.8252 5.39985 8.94216 6.77339 7.55016Z" fill="black"/>
<path d="M12.9233 4.61546C12.9233 4.10566 12.51 3.69238 12.0002 3.69238C11.4904 3.69238 11.0771 4.10566 11.0771 4.61546V12.4616C11.0771 12.9714 11.4904 13.3847 12.0002 13.3847C12.51 13.3847 12.9233 12.9714 12.9233 12.4616V4.61546Z" fill="black"/>
</mask>
<g mask="url(#mask0_2020_1584)">
<path d="M12 24C18.6274 24 24 18.6274 24 12C24 5.37258 18.6274 0 12 0C5.37258 0 0 5.37258 0 12C0 18.6274 5.37258 24 12 24Z" fill="#EB4335"/>
</g>
</svg>
